<svg width="50" height="89" viewBox="0 0 93 89" fill="none" xmlns="http://www.w3.org/2000/svg">
<path d="M89.7376 0L46.9238 20.3986C45.6363 19.5301 44.1211 19.0649 42.57 19.062C40.5172 19.062 38.5485 19.8807 37.097 21.338C35.6455 22.7954 34.83 24.7719 34.83 26.8329C34.83 28.8939 35.6455 30.8704 37.097 32.3277C38.5485 33.7851 40.5172 34.6038 42.57 34.6038C46.6335 34.6038 50.0082 31.4449 50.31 27.439L73.7738 16.2684C80.7979 19.2446 85.14 23.1301 85.14 26.8329C85.14 34.1647 68.588 42.3747 46.44 42.3747C24.292 42.3747 7.74 34.1647 7.74 26.8329C7.74 19.501 24.292 11.2911 46.44 11.2911C47.1057 11.2911 47.7094 11.2756 48.375 11.2911L62.04 4.85681C56.8862 3.97533 51.668 3.52824 46.44 3.52021C19.9692 3.52021 0 13.5369 0 26.8329L0 65.6873C0 69.5262 1.72215 73.0502 4.35375 75.8866C6.98535 78.723 10.5651 81.0154 14.7563 82.9309C23.1271 86.7542 34.2108 89 46.44 89C58.6692 89 69.749 86.7542 78.1276 82.9271C82.3149 81.0154 85.8947 78.723 88.5263 75.8866C91.1579 73.0502 92.88 69.5262 92.88 65.6873L92.88 26.8329C92.88 21.0941 89.099 15.9925 82.7213 12.0177L93 7.04431L89.7376 0ZM7.74 40.0667C11.6719 43.043 16.9467 45.4869 23.22 47.2315L23.22 77.9498C21.285 77.3437 19.5164 76.6287 17.8988 75.8866C14.3925 74.2781 11.7145 72.3509 10.0388 70.5441C8.3592 68.7374 7.74 67.2221 7.74 65.6873L7.74 40.0667ZM85.14 40.0667L85.14 65.6873C85.14 67.2221 84.5208 68.7374 82.8412 70.5441C81.1655 72.3509 78.4875 74.2742 74.9813 75.8866C73.3636 76.6287 71.595 77.3437 69.66 77.9498V47.2315C75.9333 45.483 81.2081 43.043 85.14 40.0667ZM30.96 48.9294C36.078 49.7608 41.2555 50.1675 46.44 50.1456C51.6245 50.1675 56.802 49.7608 61.92 48.9294L61.92 79.7721C57.1599 80.6657 51.9432 81.2291 46.44 81.2291C40.9369 81.2291 35.7201 80.6657 30.96 79.7721L30.96 48.9294Z" fill="#04322E"/>
</svg>
