<svg width="100" height="93" viewBox="0 0 100 93" fill="none" xmlns="http://www.w3.org/2000/svg">
<path d="M97.9263 45.7534L55.3057 3.80715L52.4489 0.994081C51.798 0.357355 50.9177 0 50.0002 0C49.0827 0 48.2024 0.357355 47.5515 0.994081L2.07413 45.7534C1.40715 46.4076 0.880019 47.1868 0.523862 48.0449C0.167705 48.903 -0.010265 49.8227 0.000457197 50.7496C0.0445779 54.5728 3.27642 57.6248 7.15903 57.6248H11.8469V93H88.1535V57.6248H92.9406C94.8268 57.6248 96.6026 56.8971 97.9373 55.5829C98.5945 54.9379 99.1152 54.1708 99.4692 53.3263C99.8233 52.4817 100.004 51.5764 99.9999 50.6627C99.9999 48.8163 99.2609 47.0676 97.9263 45.7534ZM56.1771 85.1799H43.8233V63.0229H56.1771V85.1799ZM80.2118 49.8047V85.1799H63.2364V60.4162C63.2364 58.0158 61.262 56.0716 58.8243 56.0716H41.1761C38.7384 56.0716 36.764 58.0158 36.764 60.4162V85.1799H19.7886V49.8047H9.19962L50.0112 9.65052L52.5592 12.1595L90.8118 49.8047H80.2118Z" fill="#04322E"/>
</svg>
