<svg width="169" height="217" viewBox="0 0 169 217" fill="none" xmlns="http://www.w3.org/2000/svg">
<path d="M19.0044 71.6855C50.0156 72.0947 81.0279 72.0951 112.039 71.6855C113.564 71.6646 115.023 70.3728 115.239 68.8015C116.141 60.996 116.141 53.565 115.239 45.7599C115.023 44.1891 113.564 42.8972 112.039 42.8763C81.0279 42.4675 50.0156 42.4671 19.0044 42.8763C17.48 42.8972 16.0202 44.1891 15.8044 45.7599C14.9027 53.5654 14.9027 60.996 15.8044 68.8015C16.0202 70.3728 17.48 71.6646 19.0044 71.6855Z" fill="#35D0BA"/>
<path d="M163.745 57.2811H95.035" stroke="#35D0BA" stroke-width="10" stroke-miterlimit="10" stroke-linecap="round" stroke-linejoin="round"/>
<path d="M19.0044 135.825C50.0156 136.234 81.0279 136.234 112.039 135.825C113.564 135.804 115.023 134.512 115.239 132.941C116.141 125.135 116.141 117.705 115.239 109.899C115.023 108.328 113.564 107.036 112.039 107.016C81.0279 106.607 50.0156 106.607 19.0044 107.015C17.48 107.036 16.0202 108.328 15.8044 109.899C14.9027 117.705 14.9027 125.136 15.8044 132.941C16.0202 134.512 17.48 135.804 19.0044 135.825Z" fill="#35D0BA"/>
<path d="M162.524 121.42H95.035" stroke="#35D0BA" stroke-width="10" stroke-miterlimit="10" stroke-linecap="round" stroke-linejoin="round"/>
<path d="M104.922 211.277C103.02 194.112 99.7311 177.419 83.8624 170.995C62.5542 162.369 32.8082 175.677 15.2422 157.577C6.38201 148.447 5.75093 135.42 5.46926 123.272C4.84352 98.8494 4.84352 74.2818 5.46964 49.8589C5.75093 37.7108 6.38201 24.6839 15.2422 15.5538C24.1025 6.42406 36.7446 5.77434 48.5342 5.48392C72.2358 4.83875 96.0783 4.83875 119.78 5.48392C131.569 5.77434 144.212 6.42407 153.072 15.5542C163.808 26.6171 163.504 44.2135 163.805 58.7222C164.171 76.4423 164.069 94.1822 163.089 111.881C162.282 126.436 161.634 142.666 153.765 155.301C147.504 165.353 135.282 163.56 126.551 169.828C112.955 179.59 113.143 193.108 104.922 211.277Z" stroke="#35D0BA" stroke-width="10" stroke-miterlimit="10" stroke-linecap="round" stroke-linejoin="round"/>
</svg>
