<svg width="47" height="47" viewBox="0 0 47 47" fill="none" xmlns="http://www.w3.org/2000/svg">
<path d="M41.7778 0H5.22222C2.35 0 0 2.35 0 5.22222V41.7778C0 44.65 2.35 47 5.22222 47H41.7778C44.65 47 47 44.65 47 41.7778V5.22222C47 2.35 44.65 0 41.7778 0ZM28.7222 30.0278H29.375V41.7778H17.625V30.0278H18.2778C19.7139 30.0278 20.8889 28.8528 20.8889 27.4167V5.22222H26.1111V27.4167C26.1111 28.8528 27.2861 30.0278 28.7222 30.0278ZM5.22222 5.22222H10.4444V27.4167C10.4444 28.8528 11.6194 30.0278 13.0556 30.0278H13.7083V41.7778H5.22222V5.22222ZM41.7778 41.7778H33.2917V30.0278H33.9444C35.3806 30.0278 36.5556 28.8528 36.5556 27.4167V5.22222H41.7778V41.7778Z" fill="#04322E"/>
</svg>
