<?xml version="1.0" encoding="utf-8"?>
<!-- Svg Vector Icons : http://www.onlinewebfonts.com/icon -->
<!DOCTYPE svg PUBLIC "-//W3C//DTD SVG 1.1//EN" "http://www.w3.org/Graphics/SVG/1.1/DTD/svg11.dtd">
<svg version="1.1" xmlns="http://www.w3.org/2000/svg" xmlns:xlink="http://www.w3.org/1999/xlink" x="0px" y="0px" viewBox="0 0 1000 1000" enable-background="new 0 0 1000 1000" xml:space="preserve">
<metadata> Svg Vector Icons : http://www.onlinewebfonts.com/icon </metadata>
<g><g><path d="M134.9,92.2H65.8C35,92.2,10,117.2,10,148v621.6c0,30.8,25,55.8,55.8,55.8h69.1c30.8,0,55.8-25,55.8-55.8V148C190.7,117.2,165.7,92.2,134.9,92.2z M100.3,743c-17.6,0-31.9-14.3-31.9-31.9c0-17.6,14.3-31.8,31.9-31.8c17.6,0,31.9,14.2,31.9,31.8C132.2,728.8,117.9,743,100.3,743z M100.3,225.1c-17.6,0-31.9-14.2-31.9-31.9c0-17.6,14.3-31.9,31.9-31.9c17.6,0,31.9,14.3,31.9,31.9C132.2,210.8,117.9,225.1,100.3,225.1z"/><path d="M327.4,163h-55.7c-24.9,0-45,20.2-45,45v501.6c0,24.9,20.1,45,45,45h55.7c24.9,0,45-20.1,45-45V208C372.5,183.2,352.3,163,327.4,163z M299.6,721.4c-15.9,0-28.8-12.9-28.8-28.7c0-15.9,12.9-28.8,28.8-28.8s28.8,12.9,28.8,28.8C328.3,708.5,315.5,721.4,299.6,721.4z M299.6,253.8c-15.9,0-28.8-12.9-28.8-28.7c0-15.9,12.9-28.8,28.8-28.8s28.8,12.9,28.8,28.8C328.3,240.9,315.5,253.8,299.6,253.8z"/><path d="M498.5,180.7h-52.4c-23.4,0-42.3,19-42.3,42.3v471.7c0,23.4,19,42.3,42.3,42.3h52.4c23.4,0,42.3-19,42.3-42.3V223C540.8,199.6,521.9,180.7,498.5,180.7z M472.3,705.3c-14.9,0-27-12.1-27-27c0-14.9,12.1-27,27-27s27,12.1,27,27C499.3,693.3,487.2,705.3,472.3,705.3z M472.3,266.3c-14.9,0-27-12.1-27-27c0-14.9,12.1-27,27-27s27,12.1,27,27C499.3,254.2,487.2,266.3,472.3,266.3z"/><path d="M659.9,206.5h-47.6c-21.2,0-38.4,17.2-38.4,38.4v427.9c0,21.2,17.2,38.4,38.4,38.4h47.6c21.2,0,38.4-17.2,38.4-38.4V244.9C698.3,223.7,681,206.5,659.9,206.5z M636.1,670.7c-12.5,0-22.6-10.1-22.6-22.6c0-12.5,10.1-22.6,22.6-22.6c12.5,0,22.6,10.1,22.6,22.6C658.7,660.6,648.5,670.7,636.1,670.7z M636.1,303.7c-12.5,0-22.6-10.1-22.6-22.6c0-12.5,10.1-22.6,22.6-22.6c12.5,0,22.6,10.1,22.6,22.6C658.7,293.6,648.5,303.7,636.1,303.7z"/><path d="M805.8,254.9h-38.4c-17.2,0-31,13.9-31,31v345.8c0,17.2,13.9,31,31,31h38.4c17.1,0,31-13.9,31-31V285.9C836.8,268.8,822.9,254.9,805.8,254.9z M786.6,632.7c-9.3,0-16.9-7.5-16.9-16.9c0-9.4,7.6-16.9,16.9-16.9c9.4,0,16.9,7.5,16.9,16.9C803.5,625.2,795.9,632.7,786.6,632.7z M786.6,318.1c-9.3,0-16.9-7.6-16.9-16.9c0-9.4,7.6-16.9,16.9-16.9c9.4,0,16.9,7.6,16.9,16.9C803.5,310.6,795.9,318.1,786.6,318.1z"/><path d="M973.7,788.4L917.4,778l12.2-65.8c22.1-4.1,40.4-21.3,44.7-44.7c5.6-30.3-14.4-59.4-44.7-65c-30.3-5.6-59.4,14.4-65,44.7c-4.3,23.4,6.6,46,25.8,57.7l-12.2,65.8l-83.8-15.5c-4.1-22.1-21.3-40.4-44.7-44.7c-30.3-5.6-59.4,14.4-65,44.7c-5.6,30.3,14.4,59.4,44.7,65c23.4,4.4,46-6.6,57.7-25.8l83.9,15.5l-13.8,74.4c-0.2,1.2-0.3,2.4-0.3,3.6c0,9.4,6.7,17.8,16.3,19.6c10.8,2,21.2-5.1,23.2-16l13.8-74.3l56.3,10.4c1.2,0.2,2.4,0.3,3.6,0.3c9.4,0,17.8-6.7,19.6-16.3C991.7,800.8,984.5,790.4,973.7,788.4z"/></g><g></g><g></g><g></g><g></g><g></g><g></g><g></g><g></g><g></g><g></g><g></g><g></g><g></g><g></g><g></g></g>
</svg>