<?xml version="1.0" encoding="utf-8"?>
<!-- Designed by Vexels.com - 2020 All Rights Reserved - https://vexels.com/terms-and-conditions/  -->
<svg version="1.1" id="Capa_1" xmlns="http://www.w3.org/2000/svg" xmlns:xlink="http://www.w3.org/1999/xlink" x="0px" y="0px"
	 viewBox="0 0 1200 1200" enable-background="new 0 0 1200 1200" xml:space="preserve">
<g>
	<g>
		<polygon points="426.089,635.589 451.114,634.819 451.114,339.255 426.089,338.486 		"/>
		<path d="M365.472,242.484c-9.585,0-17.383,7.799-17.383,17.383c0,9.584,7.798,17.382,17.383,17.382
			c9.584,0,17.383-7.797,17.383-17.382C382.855,250.282,375.056,242.484,365.472,242.484z"/>
		<path d="M660.497,298.734c-9.584,0-17.38,7.797-17.38,17.382c0,9.584,7.796,17.383,17.38,17.383s17.383-7.798,17.383-17.383
			C677.88,306.531,670.081,298.734,660.497,298.734z"/>
		<path d="M390.556,192.742h-50.168c-11.757,0-21.321,9.565-21.321,21.32v545.95c0,11.757,9.564,21.32,21.321,21.32h50.168
			c11.756,0,21.32-9.564,21.32-21.32v-545.95C411.876,202.307,402.312,192.742,390.556,192.742z M365.472,745.806
			c-17.422,0-31.596-14.174-31.596-31.596s14.174-31.596,31.596-31.596c17.422,0,31.596,14.174,31.596,31.596
			S382.893,745.806,365.472,745.806z M365.472,291.462c-17.422,0-31.596-14.173-31.596-31.595c0-17.422,14.174-31.596,31.596-31.596
			c17.422,0,31.596,14.174,31.596,31.596C397.068,277.289,382.893,291.462,365.472,291.462z"/>
		<path d="M572.352,484.973c0,0.718-0.107,1.411-0.305,2.065c0.199,0.655,0.305,1.347,0.305,2.066v141.988l25.022-0.769V343.755
			l-25.022-0.769V484.973z"/>
		<path d="M558.138,239.648c0-11.756-9.564-21.32-21.32-21.32h-50.171c-11.757,0-21.32,9.565-21.32,21.32v494.781
			c0,11.757,9.563,21.32,21.32,21.32h50.171c11.756,0,21.32-9.564,21.32-21.32V489.104c0-0.718,0.107-1.411,0.305-2.066
			c-0.199-0.654-0.305-1.346-0.305-2.065V239.648z M511.731,717.331c-17.42,0-31.594-14.174-31.594-31.596
			c0-17.42,14.174-31.594,31.594-31.594c17.422,0,31.596,14.174,31.596,31.594C543.328,703.156,529.154,717.331,511.731,717.331z
			 M511.731,319.936c-17.42,0-31.594-14.173-31.594-31.595s14.174-31.595,31.594-31.595c17.422,0,31.596,14.173,31.596,31.595
			S529.154,319.936,511.731,319.936z"/>
		<path d="M511.731,270.959c-9.584,0-17.38,7.797-17.38,17.382c0,9.584,7.796,17.382,17.38,17.382s17.383-7.797,17.383-17.382
			C529.114,278.757,521.316,270.959,511.731,270.959z"/>
		<path d="M511.731,668.354c-9.584,0-17.38,7.796-17.38,17.381c0,9.584,7.796,17.383,17.38,17.383s17.383-7.799,17.383-17.383
			C529.114,676.15,521.316,668.354,511.731,668.354z"/>
		<path d="M219.211,732.981c-9.584,0-17.383,7.798-17.383,17.383c0,9.584,7.799,17.383,17.383,17.383s17.381-7.799,17.381-17.383
			C236.592,740.779,228.796,732.981,219.211,732.981z"/>
		<polygon points="144.662,644.248 158.591,643.818 158.591,330.259 144.662,329.83 		"/>
		<rect x="50" y="128.781" width="80.449" height="716.513"/>
		<polygon points="279.83,640.089 304.853,639.321 304.853,334.758 279.83,333.987 		"/>
		<path d="M219.211,206.331c-9.584,0-17.383,7.797-17.383,17.382c0,9.584,7.799,17.382,17.383,17.382s17.381-7.797,17.381-17.382
			C236.592,214.129,228.796,206.331,219.211,206.331z"/>
		<circle cx="365.472" cy="714.21" r="17.383"/>
		<path d="M244.295,167.158h-50.17c-11.757,0-21.321,9.565-21.321,21.32v597.118c0,11.757,9.564,21.32,21.321,21.32h50.17
			c11.757,0,21.321-9.564,21.321-21.32V188.479C265.616,176.723,256.052,167.158,244.295,167.158z M219.211,781.96
			c-17.422,0-31.596-14.174-31.596-31.596s14.175-31.596,31.596-31.596c17.42,0,31.595,14.174,31.595,31.596
			S236.631,781.96,219.211,781.96z M219.211,255.308c-17.422,0-31.596-14.173-31.596-31.595s14.175-31.595,31.596-31.595
			c17.42,0,31.595,14.173,31.595,31.595S236.631,255.308,219.211,255.308z"/>
		<path d="M660.497,640.579c-9.584,0-17.38,7.796-17.38,17.381c0,9.584,7.796,17.383,17.38,17.383s17.383-7.798,17.383-17.383
			C677.88,648.375,670.081,640.579,660.497,640.579z"/>
		<path d="M804.253,329.596c-9.584,0-17.383,7.797-17.383,17.382s7.799,17.383,17.383,17.383c9.585,0,17.383-7.799,17.383-17.383
			S813.838,329.596,804.253,329.596z"/>
		<path d="M950.516,572.197c-9.584,0-17.383,7.797-17.383,17.382c0,9.584,7.799,17.383,17.383,17.383
			c9.585,0,17.381-7.798,17.381-17.383C967.897,579.995,960.1,572.197,950.516,572.197z"/>
		<path d="M829.34,279.729h-50.171c-11.756,0-21.32,9.565-21.32,21.32v371.977c0,11.757,9.564,21.32,21.32,21.32h50.171
			c11.757,0,21.32-9.564,21.32-21.32V301.05C850.66,289.294,841.097,279.729,829.34,279.729z M804.253,658.695
			c-17.422,0-31.596-14.174-31.596-31.596c0-17.422,14.175-31.596,31.596-31.596c17.422,0,31.596,14.174,31.596,31.596
			C835.85,644.521,821.676,658.695,804.253,658.695z M804.253,378.574c-17.422,0-31.596-14.174-31.596-31.596
			s14.175-31.595,31.596-31.595c17.422,0,31.596,14.173,31.596,31.595S821.676,378.574,804.253,378.574z"/>
		<path d="M950.516,367.115c-9.584,0-17.383,7.799-17.383,17.383c0,9.584,7.799,17.382,17.383,17.382
			c9.585,0,17.381-7.797,17.381-17.382C967.897,374.913,960.1,367.115,950.516,367.115z"/>
		<polygon points="864.874,622.093 889.895,621.323 889.895,352.754 864.874,351.985 		"/>
		<rect x="1069.552" y="250.555" width="80.448" height="472.966"/>
		<path d="M975.6,323.223h-50.171c-11.756,0-21.32,9.565-21.32,21.32v284.991c0,11.756,9.564,21.319,21.32,21.319H975.6
			c11.757,0,21.321-9.564,21.321-21.319V344.543C996.921,332.787,987.357,323.223,975.6,323.223z M950.516,621.176
			c-17.422,0-31.596-14.174-31.596-31.596s14.175-31.595,31.596-31.595c17.42,0,31.595,14.173,31.595,31.595
			S967.935,621.176,950.516,621.176z M950.516,416.093c-17.422,0-31.596-14.173-31.596-31.595s14.175-31.596,31.596-31.596
			c17.42,0,31.595,14.174,31.595,31.596S967.935,416.093,950.516,416.093z"/>
		<polygon points="1011.134,615.283 1055.338,613.777 1055.338,360.301 1011.134,358.793 		"/>
		<circle cx="804.253" cy="627.099" r="17.383"/>
		<path d="M683.078,246.47h-50.171c-11.756,0-21.32,9.565-21.32,21.32v438.496c0,11.757,9.564,21.32,21.32,21.32h50.171
			c11.757,0,21.32-9.564,21.32-21.32V267.79C704.398,256.035,694.835,246.47,683.078,246.47z M660.497,689.556
			c-17.42,0-31.594-14.174-31.594-31.596c0-17.42,14.174-31.594,31.594-31.594c17.422,0,31.596,14.174,31.596,31.594
			C692.093,675.382,677.919,689.556,660.497,689.556z M660.497,347.712c-17.42,0-31.594-14.174-31.594-31.596
			c0-17.422,14.174-31.595,31.594-31.595c17.422,0,31.596,14.173,31.596,31.595C692.093,333.538,677.919,347.712,660.497,347.712z"
			/>
		<polygon points="718.611,626.592 743.635,625.821 743.635,348.255 718.611,347.485 		"/>
	</g>
	<g>
		<path d="M909.971,894.972c15.851,8.428,34.009,10.184,51.124,4.948c17.144-5.242,31.221-16.848,39.639-32.681
			c8.417-15.831,10.163-33.991,4.919-51.135c-8.552-27.969-34.965-47.501-64.229-47.501c-6.616,0-13.207,0.99-19.59,2.943
			c-17.117,5.235-31.182,16.846-39.607,32.697c-8.427,15.849-10.186,34.005-4.951,51.119
			C882.509,872.479,894.122,886.546,909.971,894.972z M940.746,790.617c8.647-2.642,17.799-1.758,25.773,2.478
			c7.982,4.245,13.832,11.34,16.472,19.976c2.642,8.643,1.761,17.797-2.478,25.774c-4.245,7.981-11.341,13.832-19.977,16.471
			c-3.214,0.983-6.537,1.481-9.88,1.481c-14.743,0-28.053-9.841-32.364-23.934C912.838,815.026,922.913,796.074,940.746,790.617z"/>
		<path d="M1008.941,953.654c-11.268-13.975-27.275-22.722-45.072-24.631c-2.397-0.257-4.823-0.386-7.209-0.386
			c-34.351,0-63.021,25.783-66.688,59.975c-1.906,17.795,3.249,35.293,14.517,49.266c11.269,13.975,27.275,22.722,45.071,24.631
			c36.788,3.905,69.95-22.794,73.897-59.589C1025.363,985.125,1020.209,967.626,1008.941,953.654z M1009.82,987.348
			c-0.96,8.983-5.365,17.054-12.4,22.727c-6.082,4.905-13.406,7.498-21.181,7.498c-1.219,0-2.45-0.065-3.66-0.197
			c-18.544-1.987-32.015-18.695-30.026-37.241c0.96-8.974,5.367-17.041,12.402-22.717c7.039-5.677,15.861-8.27,24.839-7.31
			c8.98,0.96,17.051,5.365,22.726,12.4C1008.193,969.544,1010.785,978.368,1009.82,987.348z"/>
		<path d="M941.438,840.276c4.631,2.461,9.933,2.98,14.94,1.446c5.013-1.531,9.126-4.923,11.583-9.547
			c2.462-4.627,2.971-9.934,1.437-14.945c-1.531-5.013-4.923-9.126-9.547-11.583c-2.839-1.508-6.01-2.307-9.175-2.307
			c-1.946,0-3.887,0.292-5.768,0.87h-0.002c-5.002,1.529-9.11,4.923-11.575,9.557c-2.461,4.631-2.974,9.936-1.446,14.935
			C933.415,833.704,936.809,837.815,941.438,840.276z"/>
		<path d="M863.682,859.521c-1.18-3.859-2.071-7.812-2.665-11.817L207.464,1047.58c-3.079,0.941-5.61,3.033-7.127,5.885
			c-1.518,2.855-1.835,6.121-0.893,9.2c0.942,3.079,3.033,5.612,5.89,7.13c2.855,1.515,6.119,1.834,9.191,0.891
			c0.002,0,0.004,0,0.004,0L555.2,966.5c1.122-0.74,2.443-1.154,3.817-1.168l309.068-94.523
			C866.336,867.156,864.865,863.38,863.682,859.521z"/>
		<path d="M461.889,954.903l58.922-18.019l-322.325-34.555c-3.176-0.324-6.332,0.594-8.859,2.63
			c-2.519,2.031-4.099,4.909-4.442,8.097c-0.34,3.188,0.592,6.332,2.628,8.856c2.034,2.522,4.912,4.102,8.1,4.444l265.272,28.439
			C461.424,954.82,461.658,954.857,461.889,954.903z"/>
		<path d="M595.129,969.151l280.326,30.056c-0.173-4.048-0.044-8.101,0.386-12.113s1.164-7.997,2.188-11.912l-224.066-24.025
			L595.129,969.151z"/>
		<path d="M978.277,964.237c-0.715-0.076-1.43-0.113-2.138-0.113c-4.495,0-8.735,1.504-12.263,4.349
			c-4.079,3.29-6.632,7.97-7.192,13.179c-0.558,5.207,0.946,10.322,4.233,14.401c3.289,4.079,7.97,6.632,13.18,7.192
			c5.184,0.553,10.315-0.939,14.398-4.234c4.081-3.292,6.635-7.972,7.195-13.182c0.557-5.207-0.946-10.322-4.234-14.401
			C988.167,967.351,983.486,964.797,978.277,964.237z"/>
	</g>
</g>
</svg>
